<?xml version="1.0" standalone="no"?>
<!DOCTYPE svg PUBLIC "-//W3C//DTD SVG 20010904//EN"
 "http://www.w3.org/TR/2001/REC-SVG-20010904/DTD/svg10.dtd">
<svg version="1.0" xmlns="http://www.w3.org/2000/svg"
 width="512.000000pt" height="512.000000pt" viewBox="0 0 512.000000 512.000000"
 preserveAspectRatio="xMidYMid meet">
<metadata>
Created by potrace 1.14, written by Peter Selinger 2001-2017
</metadata>
<g transform="translate(0.000000,512.000000) scale(0.100000,-0.100000)"
fill="#000000" stroke="none">
<path d="M0 2560 l0 -2560 2560 0 2560 0 0 2560 0 2560 -2560 0 -2560 0 0
-2560z m4630 1065 l0 -945 -1110 0 -1110 0 0 795 c0 908 -11 815 99 815 33 0
62 4 65 9 3 5 53 12 111 16 58 4 107 11 110 15 3 4 54 11 115 15 60 4 110 11
110 16 0 5 24 9 54 9 30 0 57 4 60 9 3 5 55 12 116 16 60 4 110 11 110 15 0 4
54 11 120 15 66 4 120 10 120 15 0 4 50 11 110 15 61 4 113 11 116 16 3 5 30
9 60 9 30 0 54 4 54 9 0 5 50 12 110 16 61 4 110 11 110 15 0 5 54 11 120 15
66 4 120 11 120 16 0 8 54 13 173 17 l57 2 0 -945z m-2515 583 c3 -13 4 -360
3 -773 l-3 -750 -797 -3 -798 -2 0 670 0 670 44 0 c25 0 47 4 50 9 3 5 58 12
121 16 63 4 118 11 121 16 3 5 29 9 59 9 30 0 56 4 59 9 3 5 53 12 111 16 58
4 107 11 110 15 3 5 52 11 110 15 58 4 107 11 110 15 3 5 57 11 120 15 63 4
118 11 121 16 3 5 29 9 59 9 30 0 56 4 59 9 3 5 53 12 111 16 58 4 108 11 111
16 3 5 30 9 59 9 48 0 55 -3 60 -22z m0 -2578 l0 -775 -80 4 c-44 2 -84 7 -90
11 -5 4 -56 11 -113 15 -56 4 -105 11 -108 16 -3 5 -34 9 -70 9 -35 0 -64 4
-64 9 0 5 -49 12 -110 16 -60 4 -110 11 -110 15 0 4 -54 11 -120 15 -66 4
-120 10 -120 15 0 4 -50 11 -110 15 -61 4 -113 11 -116 16 -3 5 -32 9 -64 9
-32 0 -61 4 -64 9 -3 5 -55 12 -116 16 -60 4 -110 11 -110 16 0 5 -7 9 -15 9
-13 0 -15 81 -15 670 l0 670 798 -2 797 -3 0 -775z m2515 -166 l0 -946 -112 7
c-62 4 -115 11 -118 15 -3 4 -53 11 -112 15 -60 4 -108 11 -108 15 0 5 -54 11
-120 15 -66 4 -120 11 -120 16 0 5 -24 9 -54 9 -30 0 -57 4 -60 9 -3 5 -58 12
-121 16 -63 4 -117 11 -120 15 -3 4 -54 11 -115 15 -60 4 -110 11 -110 15 0 5
-54 11 -120 15 -66 4 -120 11 -120 16 0 5 -24 9 -54 9 -30 0 -57 4 -60 9 -3 5
-58 12 -121 16 -63 4 -117 11 -120 15 -3 4 -54 11 -115 15 -60 4 -110 11 -110
16 0 5 -24 9 -53 9 -29 0 -58 5 -65 12 -9 9 -12 202 -12 805 l0 793 1110 0
1110 0 0 -946z"/>
</g>
</svg>
